<svg width="27" height="18" fill="none" xmlns="http://www.w3.org/2000/svg"><path fill-rule="evenodd" clip-rule="evenodd" d="M16.518 12.896h-1.597l2.057 2.432h-1.169l-3.057-3.397h2.846c2.584 0 4.678-2.024 4.678-4.505a4.39 4.39 0 0 0-1.038-2.83c-.783-1.165.12-2.018.923-2.018-.204-.909-1.315-.977-1.315-.977-.123-.358-.438-.887-1.048-.887h-1.596a.409.409 0 0 0-.062.006c-.017.003-.034.006-.05.006-.785.084-1.546.657-.786 1.786.02.027 1.087 1.509 1.087 3.032 0 2.598-2.192 4.88-4.898 4.88H.428c0 .844.665 1.507 1.485 1.507h9.297l2.867 3.397H5.145v2.51h18.663v-2.51h-5.097l-2.192-2.432Zm-2.222-4.42c.785-.79 1.235-1.855 1.235-2.921 0-1.286-.949-2.618-.958-2.631l-.006-.01-.007-.01a2.47 2.47 0 0 1-.387-.838l-7.137 7.66h4.325c1.096 0 2.138-.448 2.935-1.25ZM1.844 17.838h2.36v-2.535h-2.36v2.535Zm22.98.02v-2.535l2.033 1.212-2.034 1.322Zm-7.73-15.476a.414.414 0 0 0 .422-.406.414.414 0 0 0-.422-.405.414.414 0 0 0-.423.405c0 .224.19.406.423.406Z" fill="#fff"/></svg>